<svg width="32" height="32" viewBox="0 0 32 32" fill="none" xmlns="http://www.w3.org/2000/svg">
  <rect width="32" height="32" rx="8" fill="#09090B"/>
  <path d="M16 8C12.5 8 9.5 10.5 8 13.5C8.8 13.2 9.7 13 10.5 13C13.5 13 16 15.5 16 18.5C16 21.5 13.5 24 10.5 24C9.2 24 7.9 23.5 7 22.7C8.2 24.7 10.4 26 13 26C17.4 26 21 22.4 21 18C21 17.3 20.9 16.7 20.7 16.1C22.6 15.6 24 13.9 24 12C24 9.8 22.2 8 20 8C18.7 8 17.5 8.6 16.8 9.6C16.5 8.6 16.3 8 16 8Z" fill="white"/>
  <circle cx="16" cy="16" r="2" fill="#3B82F6"/>
</svg>
